<svg width="12" height="12" viewBox="0 0 12 12" fill="none" xmlns="http://www.w3.org/2000/svg">
<path fill-rule="evenodd" clip-rule="evenodd" d="M10.7121 0.85714H8.73059C8.52466 0.85714 8.34815 1.00686 8.31033 1.21219L7.96153 3.09651H1.28566C0.903218 3.09651 0.814963 3.44301 0.8738 3.64834L1.91815 7.48543C1.96858 7.67365 2.13879 7.80412 2.33001 7.80412H7.60639C7.81232 7.80412 7.98883 7.6544 8.02665 7.44907L9.08781 1.72979H10.7142C10.9517 1.72979 11.1429 1.53515 11.1429 1.29346C11.1408 1.05177 10.9496 0.85714 10.7121 0.85714ZM1.84881 3.96916H7.8L7.25127 6.93361H2.65571L1.84881 3.96916ZM6.60838 8.53358C5.91495 8.53358 5.3518 9.11748 5.3518 9.83828C5.3518 10.5569 5.91495 11.143 6.60838 11.143C7.30181 11.143 7.86496 10.5591 7.86496 9.83828C7.86496 9.11748 7.30181 8.53358 6.60838 8.53358ZM6.60838 10.2682C6.38774 10.2682 6.20913 10.0735 6.20913 9.83614C6.20913 9.59873 6.38774 9.40409 6.60838 9.40409C6.82902 9.40409 7.00763 9.59873 7.00763 9.83614C7.00763 10.0757 6.82902 10.2682 6.60838 10.2682ZM2.02523 9.83828C2.02523 9.11748 2.58838 8.53358 3.28181 8.53358C3.97524 8.53358 4.53839 9.11748 4.53839 9.83828C4.53839 10.5591 3.97524 11.143 3.28181 11.143C2.58838 11.143 2.02523 10.5569 2.02523 9.83828ZM2.88256 9.83614C2.88256 10.0735 3.06117 10.2682 3.28181 10.2682C3.50245 10.2682 3.68106 10.0757 3.68106 9.83614C3.68106 9.59873 3.50245 9.40409 3.28181 9.40409C3.06117 9.40409 2.88256 9.59873 2.88256 9.83614Z" fill="white"/>
</svg>
